<?xml version="1.0" encoding="utf-8"?>
<!-- Generator: Adobe Illustrator 17.0.0, SVG Export Plug-In . SVG Version: 6.00 Build 0)  -->
<!DOCTYPE svg PUBLIC "-//W3C//DTD SVG 1.1//EN" "http://www.w3.org/Graphics/SVG/1.1/DTD/svg11.dtd">
<svg version="1.1" id="Layer_1" xmlns="http://www.w3.org/2000/svg" xmlns:xlink="http://www.w3.org/1999/xlink" x="0px" y="0px"
	 width="50px" height="60px" viewBox="0 0 50 60" enable-background="new 0 0 50 60" xml:space="preserve">
<g>
	<linearGradient id="SVGID_1_" gradientUnits="userSpaceOnUse" x1="25" y1="0.036" x2="25" y2="59.964">
		<stop  offset="0" style="stop-color:#FFFFFF"/>
		<stop  offset="1" style="stop-color:#BFBFBF"/>
	</linearGradient>
	<path fill="url(#SVGID_1_)" d="M25,0.036c-13.705,0-24.816,11.11-24.816,24.816C0.184,45.591,25,59.964,25,59.964
		s24.816-14.296,24.816-35.112C49.816,11.146,38.705,0.036,25,0.036z M35.226,35.316l-3.228,3.646l-1.218-2.065
		c-1.762,0.858-3.74,1.34-5.832,1.34c-7.364,0-13.335-5.97-13.335-13.335c0-7.364,5.97-13.335,13.335-13.335
		s13.335,5.97,13.335,13.335c0,2.834-0.885,5.461-2.392,7.621L41.09,44.05L35.226,35.316z"/>
	<linearGradient id="SVGID_2_" gradientUnits="userSpaceOnUse" x1="30.5275" y1="24.7127" x2="30.5275" y2="36.8974">
		<stop  offset="0" style="stop-color:#FFFFFF"/>
		<stop  offset="1" style="stop-color:#BFBFBF"/>
	</linearGradient>
	<path fill="url(#SVGID_2_)" d="M35.891,32.524l-0.747-1.656l-2.713,3.866l-5.315-10.022l-1.952,2.661l5.616,9.524
		C32.835,35.897,34.593,34.384,35.891,32.524z"/>
</g>
</svg>
